# Made using Asset Forge (www.assetforge.io) version 1.3 

mtllib bouclier.mtl 

g sphere_vertex_2

v 0.4253254 0.7628655 2.887646E-15
v 0.5 0.5 2.887646E-15
v 0.4045085 0.6545085 0.25
v 0.1545085 0.75 -0.4045085
v 0.4045085 0.6545085 -0.25
v 0.25 0.9045084 -0.1545085
v 1.082867E-15 0.9253254 -0.2628655
v 0.2628655 0.5 0.4253254
v 0.1545085 0.75 0.4045085
v -0.25 0.0954915 0.1545085
v -0.25 0.0954915 -0.1545085
v -0.4253254 0.2371344 2.887646E-15
v 0.25 0.9045084 0.1545085
v 1.082867E-15 1 2.887646E-15
v 0.1545085 0.25 0.4045085
v 0.25 0.0954915 0.1545085
v 1.082867E-15 0.0746746 0.2628655
v 0.1545085 0.25 -0.4045085
v 0.4045085 0.3454915 -0.25
v 0.2628655 0.5 -0.4253254
v 1.082867E-15 0.0746746 -0.2628655
v -0.1545085 0.25 -0.4045085
v 1.082867E-15 0.5 0.5
v -0.1545085 0.25 0.4045085
v -0.2628655 0.5 0.4253254
v -0.25 0.9045084 -0.1545085
v -0.25 0.9045084 0.1545085
v -0.4253254 0.7628655 2.887646E-15
v -0.2628655 0.5 -0.4253254
v 1.082867E-15 0.5 -0.5
v -0.5 0.5 2.887646E-15
v -0.4045085 0.6545085 0.25
v 0.25 0.0954915 -0.1545085
v 1.082867E-15 1.923558E-30 2.887646E-15
v 0.4253254 0.2371344 2.887646E-15
v 0.4045085 0.3454915 0.25
v -0.4045085 0.3454915 -0.25
v -0.4045085 0.6545085 -0.25
v -0.4045085 0.3454915 0.25
v -0.1545085 0.75 -0.4045085
v 1.082867E-15 0.9253254 0.2628655
v -0.1545085 0.75 0.4045085
vn 0.9435221 0.2680349 0.1947387
vn 0.9505884 0.1356935 0.2792293
vn 0.505635 0.5623999 -0.6542473
vn 0.6542475 0.505635 -0.5623998
vn 0.5623999 0.6542475 -0.5056348
vn 0.4518026 0.6713592 -0.5874958
vn 0.315094 0.7487835 -0.5831286
vn 0.5874959 0.4518025 0.6713591
vn 0.5831288 0.3150938 0.7487834
vn -0.4987859 -0.8667253 0
vn -0.6284283 -0.7778675 0
vn 0.4043472 0.909982 -0.09184758
vn 0.4043472 0.909982 0.09184758
vn 0.2557348 0.9667469 0
vn 0.4518024 -0.6713591 0.5874959
vn 0.3150938 -0.7487834 0.5831288
vn 0.5874959 -0.4518024 -0.6713591
vn 0.5831288 -0.3150938 -0.7487834
vn -0.3150938 -0.7487834 -0.5831288
vn -0.4518024 -0.6713591 -0.5874959
vn -0.1356935 -0.2792293 0.9505884
vn -0.2680349 -0.1947387 0.9435221
vn -0.4987859 0.8667253 0
vn -0.6284282 0.7778676 0
vn -0.2680349 -0.1947387 -0.9435221
vn -0.1356935 -0.2792293 -0.9505884
vn -0.9505884 0.1356935 0.2792293
vn -0.9435221 0.2680349 0.1947387
vn -0.7487834 0.5831288 0.3150939
vn -0.6713591 0.587496 0.4518024
vn 0.4043472 -0.9099821 0.09184759
vn 0.4043471 -0.9099821 -0.09184757
vn 0.2557346 -0.966747 0
vn 0.9099821 0.0918476 -0.4043472
vn 0.9099821 -0.09184759 -0.4043472
vn 0.966747 0 -0.2557346
vn 0.7487835 -0.5831288 0.3150939
vn 0.6713591 -0.5874959 0.4518024
vn -0.0918476 -0.4043472 -0.9099821
vn 0.0918476 -0.4043472 -0.9099821
vn 0 -0.2557346 -0.966747
vn -0.8667253 0 -0.498786
vn -0.7778675 0 -0.6284283
vn -0.5623999 -0.6542475 -0.505635
vn -0.505635 -0.5623999 -0.6542475
vn -0.6542475 -0.505635 -0.5623998
vn 0 -0.4987859 -0.8667253
vn 0 -0.6284283 -0.7778675
vn 0.2680349 0.1947387 0.9435221
vn 0.1356935 0.2792293 0.9505884
vn 0.2792293 -0.9505884 -0.1356934
vn 0.1947387 -0.9435222 -0.2680349
vn -0.9099821 -0.09184759 -0.4043472
vn -0.9099821 0.0918476 -0.4043472
vn -0.966747 0 -0.2557346
vn -0.6713591 -0.587496 0.4518025
vn -0.7487835 -0.5831288 0.3150939
vn 0.9505884 -0.1356935 0.2792293
vn 0.9435221 -0.2680349 0.1947387
vn 0.1356935 -0.2792293 -0.9505884
vn 0.2680349 -0.1947387 -0.9435221
vn 0.5874959 -0.4518024 0.6713591
vn 0.5831288 -0.3150938 0.7487834
vn 0.0918476 -0.4043472 0.9099821
vn -0.0918476 -0.4043472 0.9099821
vn 0 -0.2557346 0.966747
vn -0.505635 -0.5623999 0.6542475
vn -0.5623998 -0.6542475 0.505635
vn -0.6542473 -0.5056349 0.5623998
vn -0.9505884 0.1356935 -0.2792293
vn -0.9435221 0.2680349 -0.1947387
vn -0.9099821 -0.09184759 0.4043472
vn -0.966747 0 0.2557346
vn -0.9099821 0.0918476 0.4043472
vn -0.4518024 -0.6713591 0.5874959
vn -0.3150938 -0.7487834 0.5831288
vn -0.9435221 -0.2680349 -0.1947387
vn -0.9505884 -0.1356935 -0.2792293
vn 0.4987859 -0.8667253 0
vn 0.6284283 -0.7778675 0
vn 0 0.498786 -0.8667253
vn 0 0.6284283 -0.7778675
vn -0.4518026 0.6713591 -0.5874959
vn -0.315094 0.7487835 -0.5831286
vn 0.9435221 0.2680349 -0.1947387
vn 0.9505884 0.1356935 -0.2792293
vn 0.9505884 -0.1356935 -0.2792293
vn 0.9435221 -0.2680349 -0.1947387
vn -0.315094 0.7487835 0.5831287
vn -0.4518025 0.6713592 0.5874958
vn -0.2680349 0.1947387 -0.9435221
vn -0.1356935 0.2792293 -0.9505884
vn 0 -0.4987859 0.8667253
vn 0 -0.6284283 0.7778675
vn -0.1947389 0.9435221 -0.2680349
vn -0.2792295 0.9505884 -0.1356935
vn -0.5831288 0.3150938 0.7487834
vn -0.5874959 0.4518025 0.6713591
vn 0.8667253 0 0.498786
vn 0.7778675 0 0.6284283
vn -0.4043472 -0.9099821 0.09184759
vn -0.2557346 -0.966747 0
vn -0.4043472 -0.9099821 -0.09184759
vn -0.9435221 -0.2680349 0.1947387
vn -0.9505884 -0.1356935 0.2792293
vn -0.1356935 0.2792293 0.9505884
vn -0.2680349 0.1947387 0.9435221
vn -0.6713591 0.5874959 -0.4518024
vn -0.7487834 0.5831288 -0.3150939
vn 0.2792295 0.9505884 0.1356935
vn 0.1947389 0.9435221 0.2680349
vn 0.8667253 0 -0.498786
vn 0.7778675 0 -0.6284283
vn 0.1947387 -0.9435222 0.2680349
vn 0.2792293 -0.9505884 0.1356934
vn -0.5056349 0.5623999 0.6542473
vn -0.6542475 0.505635 0.5623998
vn -0.5623998 0.6542475 0.5056348
vn 0.1947389 0.9435221 -0.2680349
vn 0.2792295 0.9505884 -0.1356935
vn 0.505635 -0.5623999 -0.6542475
vn 0.5623999 -0.6542475 -0.505635
vn 0.6542474 -0.505635 -0.5623999
vn -0.6713591 -0.5874959 -0.4518024
vn -0.7487835 -0.5831288 -0.3150939
vn 0.6713591 0.587496 -0.4518024
vn 0.7487834 0.5831288 -0.3150939
vn 0.2680349 -0.1947387 0.9435221
vn 0.1356935 -0.2792293 0.9505884
vn -0.2792293 -0.9505884 -0.1356934
vn -0.1947387 -0.9435222 -0.2680349
vn 0.4518024 -0.6713591 -0.5874959
vn 0.3150938 -0.7487834 -0.5831288
vn 0.1356935 0.2792293 -0.9505884
vn 0.2680349 0.1947387 -0.9435221
vn -0.8667253 0 0.498786
vn -0.7778675 0 0.6284283
vn 0.6542473 0.5056349 0.5623998
vn 0.5056349 0.5623999 0.6542473
vn 0.5623999 0.6542475 0.5056348
vn -0.2792295 0.9505884 0.1356935
vn -0.1947389 0.9435221 0.2680349
vn 0.9099821 0.0918476 0.4043472
vn 0.966747 0 0.2557346
vn 0.9099821 -0.09184759 0.4043472
vn 0.5623999 -0.6542475 0.505635
vn 0.5056349 -0.5623998 0.6542473
vn 0.6542475 -0.505635 0.5623998
vn -0.5874959 0.4518025 -0.6713591
vn -0.5831288 0.3150938 -0.7487834
vn 0.0918476 0.4043472 0.9099821
vn 0 0.2557346 0.966747
vn -0.0918476 0.4043472 0.9099821
vn 0.4987859 0.8667253 0
vn 0.6284282 0.7778676 0
vn -0.4043472 0.9099821 -0.0918476
vn -0.2557348 0.9667469 0
vn -0.4043472 0.909982 0.09184758
vn 0.4518026 0.6713591 0.5874959
vn 0.315094 0.7487835 0.5831286
vn -0.5874959 -0.4518024 -0.6713591
vn -0.5831288 -0.3150938 -0.7487834
vn 0.6713591 -0.587496 -0.4518025
vn 0.7487835 -0.5831288 -0.3150939
vn -0.1947387 -0.9435222 0.2680349
vn -0.2792293 -0.9505884 0.1356934
vn -0.0918476 0.4043472 -0.9099821
vn 0 0.2557346 -0.966747
vn 0.0918476 0.4043472 -0.9099821
vn -0.6542475 0.505635 -0.5623998
vn -0.505635 0.5623999 -0.6542473
vn -0.5623998 0.6542475 -0.5056348
vn -0.5874959 -0.4518024 0.6713591
vn -0.5831288 -0.3150938 0.7487834
vn 0.6713591 0.5874959 0.4518024
vn 0.7487834 0.5831288 0.3150939
vn 0 0.498786 0.8667253
vn 0 0.6284283 0.7778675
vn 0.5831288 0.3150938 -0.7487834
vn 0.5874959 0.4518025 -0.6713591
vt -2.887646E-15 0.7628655
vt -2.887646E-15 0.5
vt -0.25 0.6545085
vt -0.1545085 -0.4045085
vt -0.4045085 -0.25
vt -0.25 -0.1545085
vt -1.082867E-15 -0.2628655
vt 0.4045085 0.6545085
vt 0.2628655 0.5
vt 0.1545085 0.75
vt 0.25 -0.1545085
vt 0.25 0.1545085
vt 0.4253254 -2.887646E-15
vt -0.25 0.1545085
vt -1.082867E-15 2.887646E-15
vt -0.1545085 0.25
vt -0.4045085 0.3454915
vt -0.2628655 0.5
vt -1.082867E-15 0.2628655
vt 0.1545085 0.4045085
vt 1.082867E-15 0.5
vt 0.4253254 2.887646E-15
vt 0.1545085 0.25
vt -1.082867E-15 0.5
vt 2.887646E-15 0.5
vt 2.887646E-15 0.7628655
vt 0.25 0.6545085
vt 0.1545085 0.9045084
vt -1.082867E-15 -2.887646E-15
vt 0.25 0.3454915
vt -2.887646E-15 0.2371344
vt -0.1545085 0.0954915
vt -0.25 0.3454915
vt -0.4253254 0.5
vt 0.25 0.0954915
vt 0.4045085 0.3454915
vt -1.082867E-15 0.0746746
vt 0.1545085 0.0954915
vt 2.887646E-15 0.2371344
vt -0.25 0.0954915
vt 0.1545085 -0.4045085
vt -0.4253254 -2.887646E-15
vt -0.1545085 0.75
vt -1.082867E-15 0.9253254
vt 1.082867E-15 0.0746746
vt -0.4045085 0.6545085
vt -0.1545085 0.9045084
vt 0.4253254 0.5
vt 0.4045085 0.25
vt -0.1545085 0.4045085
vt -0.4045085 0.25
vt -0.4253254 2.887646E-15
vt 0.4045085 -0.25
vt 1.082867E-15 0.9253254

usemtl _defaultMat (Instance) (Instance)
usemap _defaultMat (Instance) (Instance)
f 3/3/2 2/2/2 1/1/1
f 6/6/5 5/5/4 4/4/3
f 7/7/7 6/6/6 4/4/6
f 9/10/8 8/9/9 3/8/8
f 12/13/11 11/12/10 10/11/10
f 14/15/14 13/14/13 6/6/12
f 17/7/16 16/6/15 15/4/15
f 20/18/18 19/17/17 18/16/17
f 11/12/20 22/20/20 21/19/19
f 25/18/22 24/16/21 23/21/21
f 28/22/24 27/12/23 26/11/23
f 30/24/26 22/23/26 29/9/25
f 32/27/27 28/26/28 31/25/27
f 32/27/30 27/28/30 28/26/29
f 34/29/33 33/14/32 16/6/31
f 2/2/36 19/30/35 5/27/34
f 36/33/38 16/32/38 35/31/37
f 30/24/41 18/16/40 22/23/39
f 38/3/42 29/34/43 37/33/42
f 37/36/46 22/23/45 11/35/44
f 18/16/47 21/37/48 22/23/47
f 9/10/50 23/21/50 8/9/49
f 21/19/52 33/14/51 34/29/51
f 31/25/55 38/3/54 37/33/53
f 39/30/56 12/39/57 10/38/56
f 36/33/58 35/31/59 2/2/58
f 20/18/61 18/16/60 30/24/60
f 8/9/63 15/23/62 36/36/62
f 23/21/66 24/16/65 15/23/64
f 39/17/69 10/40/68 24/16/67
f 28/26/71 38/3/70 31/25/70
f 32/27/74 31/25/73 39/30/72
f 10/11/75 17/7/76 24/41/75
f 31/25/78 37/33/78 12/39/77
f 33/14/79 35/42/80 16/6/79
f 7/44/82 4/43/81 40/10/81
f 26/11/83 7/7/84 40/41/83
f 2/2/86 5/27/86 1/1/85
f 35/31/88 19/30/87 2/2/87
f 27/12/90 42/20/90 41/19/89
f 40/10/92 30/24/92 29/9/91
f 24/16/93 17/45/94 15/23/93
f 26/11/96 14/15/96 7/7/95
f 42/43/98 32/46/98 25/18/97
f 8/34/100 36/33/99 3/3/99
f 11/12/103 34/29/102 10/11/101
f 39/30/105 31/25/105 12/39/104
f 42/43/106 25/18/107 23/21/106
f 28/26/109 26/47/108 38/3/108
f 41/19/111 13/14/110 14/15/110
f 19/30/112 20/48/113 5/27/112
f 34/29/115 16/6/115 17/7/114
f 27/12/118 32/49/117 42/20/116
f 14/15/120 6/6/120 7/7/119
f 19/17/123 33/40/122 18/16/121
f 12/39/125 37/33/124 11/32/124
f 1/1/127 5/27/126 6/28/126
f 23/21/129 15/23/129 8/9/128
f 11/12/130 21/19/131 34/29/130
f 21/19/133 18/50/132 33/14/132
f 4/43/134 20/18/135 30/24/134
f 25/48/137 32/27/136 39/30/136
f 13/14/140 9/50/139 3/51/138
f 27/12/141 41/19/142 14/15/141
f 36/33/145 2/2/144 3/3/143
f 36/36/148 15/23/147 16/35/146
f 40/10/149 29/9/150 38/8/149
f 42/43/153 23/21/152 9/10/151
f 13/14/154 1/52/155 6/6/154
f 27/12/158 14/15/157 26/11/156
f 41/19/160 9/50/159 13/14/159
f 29/9/162 22/23/161 37/36/161
f 35/31/164 33/38/163 19/30/163
f 10/11/166 34/29/166 17/7/165
f 4/43/169 30/24/168 40/10/167
f 26/11/172 40/41/171 38/53/170
f 25/18/174 39/17/173 24/16/173
f 3/3/175 1/1/176 13/47/175
f 41/54/178 42/43/177 9/10/177
f 4/43/180 5/46/180 20/18/179
